<svg xmlns="http://www.w3.org/2000/svg" xmlns:xlink="http://www.w3.org/1999/xlink" aria-hidden="true" role="img" class="iconify iconify--logos" width="31.88" height="32" preserveAspectRatio="xMidYMid meet" viewBox="0 0 256 257"><defs><linearGradient id="IconifyId1813088fe1fbc01fb466" x1="-.828%" x2="57.636%" y1="7.652%" y2="78.411%"><stop offset="0%" stop-color="#41D1FF"></stop><stop offset="100%" stop-color="#BD34FE"></stop></linearGradient><linearGradient id="IconifyId1813088fe1fbc01fb467" x1="43.376%" x2="50.316%" y1="2.242%" y2="89.03%"><stop offset="0%" stop-color="#FFBD4F"></stop><stop offset="100%" stop-color="#FF980E"></stop></linearGradient></defs><path fill="url(#IconifyId1813088fe1fbc01fb466)" d="M255.153 37.938L134.897 252.776c-3.253 5.803-11.592 5.935-15.041.238L.875 37.958c-3.826-6.315 1.301-14.161 8.694-13.315l120.385 13.772a9.927 9.927 0 0 0 9.923-9.923V14.126c0-6.28 5.716-11.025 11.928-9.952l95.091 16.425c7.306 1.259 11.686 8.741 8.257 15.319Z"></path><path fill="url(#IconifyId1813088fe1fbc01fb467)" d="M185.432.063L96.44 15.286a9.925 9.925 0 0 0-8.256 9.951v71.074c0 6.28-5.716 11.026-11.929 9.953L.926 92.87C-6.468 92.022-1.342 84.177 6.052 47.888l87.536-14.99a9.927 9.927 0 0 0 9.923-9.923V14.126c0-6.28 5.716-11.025 11.928-9.952l61.723 10.621c7.306 1.259 11.686 8.741 8.257 15.319l-49.572 88.633c-3.253 5.803-11.592 5.935-15.041.238L91.526 70.258c-3.826-6.315 1.301-14.161 8.694-13.315l54.118 6.199c6.966.798 12.772-5.008 12.772-12.005V23.996c0-6.28 5.716-11.025 11.928-9.952l67.726 11.657c7.306 1.259 11.686 8.741 8.257 15.319l-99.073 177.376c-3.253 5.803-11.592 5.935-15.041.238L25.878 30.672c-3.826-6.315 1.301-14.161 8.694-13.315l142.616 16.318c6.966.798 12.772-5.008 12.772-12.005V12.019c0-6.28 5.716-11.025 11.928-9.952l45.441 7.814c7.306 1.259 11.686 8.741 8.257 15.319Z"></path></svg>
